<svg xmlns="http://www.w3.org/2000/svg" width="59" height="72"><g fill="#FFF"><path d="M58.34 20.545a2.997 2.997 0 0 0-2.396-1.195h-38.67l-2.475-7.385H3.058c-1.657 0-3 1.343-3 3s1.343 3 3 3h7.424l13.5 40.285h25.159c1.657 0 3-1.343 3-3s-1.343-3-3-3H28.299l-1.726-5.149h23.12c1.338 0 2.514-.886 2.884-2.172l6.25-21.75c.26-.906.079-1.881-.487-2.634zm-7.781 9.681h-4.81V25.35h6.211l-1.401 4.876zm-17.617 0V25.35h6.807v4.875h-6.807zm6.807 6v4.875h-6.807v-4.875h6.807zM26.942 25.35v4.875h-6.023l-1.634-4.875h7.657zm-4.013 10.876h4.013v4.875h-2.379l-1.634-4.875zm22.82 4.875v-4.875h3.086l-1.401 4.875h-1.685z"/><circle cx="27.406" cy="66.094" r="5.781"/><circle cx="44.844" cy="66.094" r="5.781"/><path d="M29.335 9.699l7.547 5.492c.914.665 2.174.441 2.818-.494.646-.936.43-2.232-.48-2.895l-2.373-1.726 9.436-5.09L50.911 17h4.347L49.214 1.309c-.211-.548-.64-.978-1.177-1.183a1.9699 1.9699 0 0 0-1.643.109L33.146 7.382l-3.022-2.199c-.872-.634-2.071-.462-2.742.39l-8.481 10.798c-.169.181-.305.395-.405.628h5.106l5.733-7.3z"/></g></svg>
